<?xml version="1.0" encoding="iso-8859-1"?>
<!-- Uploaded to: SVG Repo, www.svgrepo.com, Generator: SVG Repo Mixer Tools -->
<svg height="800px" width="800px" version="1.1" id="Layer_1" xmlns="http://www.w3.org/2000/svg" xmlns:xlink="http://www.w3.org/1999/xlink" 
	 viewBox="0 0 507.053 507.053" xml:space="preserve">
<g>
	<path id="SVGCleanerId_0" style="fill:#932C25;" d="M109.319,317.242c7.615-19.409,23.906-34.23,44.153-34.23
		c17.036,0,31.269,8.797,42.44,21.225c15.276,16.998,22.025,54.272-6.181,81.585c-14.476,14.01-80.244,82.86-80.244,82.86
		s-65.601-69.018-80.244-82.86c-28.486-26.94-22.081-64.205-6.181-81.585c11.273-12.325,25.405-21.225,42.44-21.225
		C85.739,283.012,101.704,297.832,109.319,317.242"/>
	<path style="fill:#932C25;" d="M425.859,38.289c6.2-15.788,19.447-27.843,35.914-27.843c13.861,0,25.442,7.159,34.527,17.268
		c12.428,13.824,17.92,44.144-5.027,66.365c-11.776,11.394-65.275,67.398-65.275,67.398s-53.369-56.143-65.275-67.398
		c-23.18-21.914-17.967-52.233-5.036-66.365c9.169-10.035,20.666-17.268,34.527-17.268
		C406.682,10.446,419.659,22.501,425.859,38.289"/>
	<g>
		<path id="SVGCleanerId_0_1_" style="fill:#932C25;" d="M109.319,317.242c7.615-19.409,23.906-34.23,44.153-34.23
			c17.036,0,31.269,8.797,42.44,21.225c15.276,16.998,22.025,54.272-6.181,81.585c-14.476,14.01-80.244,82.86-80.244,82.86
			s-65.601-69.018-80.244-82.86c-28.486-26.94-22.081-64.205-6.181-81.585c11.273-12.325,25.405-21.225,42.44-21.225
			C85.739,283.012,101.704,297.832,109.319,317.242"/>
	</g>
	<path style="fill:#E8594B;" d="M425.995,161.48c0,0-53.369-56.143-65.275-67.407c-14.094-13.321-17.65-29.743-15.397-43.753
		c-48.361,0.298-87.273,35.793-105.509,82.246c-18.311-46.648-56.674-82.283-105.323-82.283c-40.96,0-74.938,21.383-102.037,51.023
		c-36.799,40.243-52.215,124.751,7.857,188.779c7.55-4.375,15.928-7.075,25.19-7.075c20.238,0,36.203,14.829,43.818,34.23
		c7.615-19.4,23.915-34.23,44.153-34.23c17.036,0,31.269,8.806,42.44,21.225c15.286,16.998,22.025,54.272-6.181,81.585
		c-4.934,4.776-15.853,15.956-28.067,28.57c41.9,43.66,78.55,82.218,78.55,82.218S398.309,331.11,433.107,297.421
		c57.567-55.734,54.495-128.614,29.808-174.396C445.05,141.54,425.995,161.48,425.995,161.48"/>
</g>
</svg>